<svg xmlns="http://www.w3.org/2000/svg" viewBox="0 0 127.23 20.04"><defs><style>.cls-1{fill:#f2f2f2;}.cls-2{fill:none;stroke:#ff9329;stroke-miterlimit:10;}.cls-3{fill:#ff9329;}</style></defs><g id="Слой_2" data-name="Слой 2"><g id="Слой_1-2" data-name="Слой 1"><path class="cls-1" d="M2,15.61A5.3,5.3,0,0,1,0,14.5l.65-1.36a5.22,5.22,0,0,0,1.79,1,6.66,6.66,0,0,0,2.25.39A4.09,4.09,0,0,0,7,14a1.61,1.61,0,0,0,.75-1.38,1.32,1.32,0,0,0-.41-1,2.76,2.76,0,0,0-1-.61c-.41-.14-1-.29-1.71-.47a15.8,15.8,0,0,1-2.23-.67,3.65,3.65,0,0,1-1.46-1A2.74,2.74,0,0,1,.3,7,3.16,3.16,0,0,1,.81,5.24,3.61,3.61,0,0,1,2.38,4,6.45,6.45,0,0,1,5,3.5a8.11,8.11,0,0,1,2.14.28,5.73,5.73,0,0,1,1.8.81L8.36,6a6.45,6.45,0,0,0-1.65-.75A6.56,6.56,0,0,0,5,5a3.78,3.78,0,0,0-2.23.54A1.67,1.67,0,0,0,2,6.94a1.34,1.34,0,0,0,.42,1,2.85,2.85,0,0,0,1,.61A15.82,15.82,0,0,0,5.17,9a17.23,17.23,0,0,1,2.22.66,3.76,3.76,0,0,1,1.45,1,2.68,2.68,0,0,1,.6,1.84,3.13,3.13,0,0,1-.52,1.76,3.56,3.56,0,0,1-1.6,1.26A6.59,6.59,0,0,1,4.69,16,8.3,8.3,0,0,1,2,15.61Z"/><path class="cls-1" d="M14.16,15.23A6,6,0,0,1,11.84,13,6.24,6.24,0,0,1,11,9.77a6.2,6.2,0,0,1,.84-3.21,6,6,0,0,1,2.33-2.24A6.74,6.74,0,0,1,17.5,3.5,7,7,0,0,1,20.13,4a5.4,5.4,0,0,1,2,1.43L21,6.51a4.55,4.55,0,0,0-3.45-1.45,5.11,5.11,0,0,0-2.47.61,4.53,4.53,0,0,0-1.73,1.69,4.78,4.78,0,0,0-.62,2.41,4.78,4.78,0,0,0,.62,2.41,4.46,4.46,0,0,0,1.73,1.69,5,5,0,0,0,2.47.61A4.57,4.57,0,0,0,21,13l1.14,1.11a5.36,5.36,0,0,1-2,1.43,6.86,6.86,0,0,1-2.64.49A6.83,6.83,0,0,1,14.16,15.23Z"/><path class="cls-1" d="M35.21,3.64V15.9H33.46V10.44h-7V15.9H24.66V3.64h1.75V8.91h7.05V3.64Z"/><path class="cls-2" d="M39,15.82a26.64,26.64,0,0,0,13.59,3.72c8,0,12-3.72,12-3.72"/><path class="cls-3" d="M41.13,11.73A6.07,6.07,0,0,1,38.8,9.48,6.16,6.16,0,0,1,38,6.27a6.1,6.1,0,0,1,.85-3.2A6,6,0,0,1,41.13.81,6.92,6.92,0,0,1,44.48,0a6.84,6.84,0,0,1,3.33.81,6,6,0,0,1,2.33,2.25A6.2,6.2,0,0,1,51,6.27a6.26,6.26,0,0,1-.84,3.22,6,6,0,0,1-2.33,2.24,6.84,6.84,0,0,1-3.33.81A6.92,6.92,0,0,1,41.13,11.73Zm5.78-1.36a4.59,4.59,0,0,0,1.7-1.69,4.78,4.78,0,0,0,.62-2.41,4.78,4.78,0,0,0-.62-2.41,4.59,4.59,0,0,0-1.7-1.69,4.82,4.82,0,0,0-2.43-.61A4.88,4.88,0,0,0,42,2.17a4.44,4.44,0,0,0-1.72,1.69,4.78,4.78,0,0,0-.62,2.41,4.78,4.78,0,0,0,.62,2.41A4.44,4.44,0,0,0,42,10.37a4.88,4.88,0,0,0,2.44.61A4.82,4.82,0,0,0,46.91,10.37Z"/><path class="cls-3" d="M55.85,11.73a6.09,6.09,0,0,1-3.19-5.46A6.12,6.12,0,0,1,55.85.81a7.27,7.27,0,0,1,6.67,0,6,6,0,0,1,2.33,2.25,6.2,6.2,0,0,1,.84,3.21,6.26,6.26,0,0,1-.84,3.22,6,6,0,0,1-2.33,2.24,7.27,7.27,0,0,1-6.67,0Zm5.77-1.36a4.52,4.52,0,0,0,1.7-1.69,4.78,4.78,0,0,0,.62-2.41,4.78,4.78,0,0,0-.62-2.41,4.52,4.52,0,0,0-1.7-1.69,4.82,4.82,0,0,0-2.43-.61,4.88,4.88,0,0,0-2.44.61A4.5,4.5,0,0,0,55,3.86a4.78,4.78,0,0,0-.62,2.41A4.78,4.78,0,0,0,55,8.68a4.5,4.5,0,0,0,1.72,1.69,4.88,4.88,0,0,0,2.44.61A4.82,4.82,0,0,0,61.62,10.37Z"/><path class="cls-1" d="M68.32,3.64h1.75V14.38h6.64V15.9H68.32Z"/><path class="cls-1" d="M90.24,3.61h5.24a8,8,0,0,1,3.61.78,5.82,5.82,0,0,1,3.28,5.38,5.79,5.79,0,0,1-3.28,5.38,7.89,7.89,0,0,1-3.61.79H90.24Zm5.17,11.2a6.48,6.48,0,0,0,3-.64A4.75,4.75,0,0,0,101,9.77a4.83,4.83,0,0,0-.7-2.61,4.77,4.77,0,0,0-2-1.78,6.48,6.48,0,0,0-3-.64H91.6V14.81Z"/><path class="cls-1" d="M113.31,12.64h-7.17l-1.54,3.3h-1.42l5.89-12.33h1.34l5.88,12.33h-1.43Zm-.49-1.05L109.73,5l-3.09,6.63Z"/><path class="cls-1" d="M122.08,11.67v4.27h-1.34V11.67l-5.15-8.06h1.46l4.41,6.92,4.41-6.92h1.36Z"/></g></g></svg>